<mxfile host="drawio-plugin" modified="2022-04-28T16:30:46.587Z" agent="5.0 (Windows NT 6.2; Win64; x64) AppleWebKit/537.36 (KHTML, like Gecko) Chrome/97.0.4692.45 Safari/537.36" etag="i5cYOhImuxa5Y-DhpLGZ" version="15.5.4" type="embed"><diagram id="9R8XPbtGNoSeO6ZsqYvT" name="Page-1"><mxGraphModel dx="1099" dy="743" grid="0" gridSize="10" guides="1" tooltips="1" connect="1" arrows="1" fold="1" page="1" pageScale="1" pageWidth="850" pageHeight="1100" math="0" shadow="0"><root><mxCell id="0"/><mxCell id="1" parent="0"/><mxCell id="HWjeAOC6Ue74Z8zbPZ3M-6" value="Game" style="swimlane;childLayout=stackLayout;resizeParent=1;resizeParentMax=0;startSize=20;" parent="1" vertex="1"><mxGeometry x="10" y="10" width="830" height="740" as="geometry"/></mxCell><mxCell id="HWjeAOC6Ue74Z8zbPZ3M-7" value="Startscherm" style="swimlane;startSize=20;" parent="HWjeAOC6Ue74Z8zbPZ3M-6" vertex="1"><mxGeometry y="20" width="210" height="720" as="geometry"/></mxCell><mxCell id="HWjeAOC6Ue74Z8zbPZ3M-16" style="edgeStyle=orthogonalEdgeStyle;rounded=0;orthogonalLoop=1;jettySize=auto;html=1;" parent="HWjeAOC6Ue74Z8zbPZ3M-7" source="HWjeAOC6Ue74Z8zbPZ3M-12" target="HWjeAOC6Ue74Z8zbPZ3M-13" edge="1"><mxGeometry relative="1" as="geometry"/></mxCell><mxCell id="HWjeAOC6Ue74Z8zbPZ3M-12" value="Start" style="ellipse;whiteSpace=wrap;html=1;" parent="HWjeAOC6Ue74Z8zbPZ3M-7" vertex="1"><mxGeometry x="45" y="60" width="120" height="80" as="geometry"/></mxCell><mxCell id="HWjeAOC6Ue74Z8zbPZ3M-13" value="Spel beginnen" style="rounded=1;whiteSpace=wrap;html=1;" parent="HWjeAOC6Ue74Z8zbPZ3M-7" vertex="1"><mxGeometry x="45" y="210" width="120" height="60" as="geometry"/></mxCell><mxCell id="HWjeAOC6Ue74Z8zbPZ3M-8" value="Speelscherm" style="swimlane;startSize=20;" parent="HWjeAOC6Ue74Z8zbPZ3M-6" vertex="1"><mxGeometry x="210" y="20" width="430" height="720" as="geometry"/></mxCell><mxCell id="HWjeAOC6Ue74Z8zbPZ3M-18" style="edgeStyle=orthogonalEdgeStyle;rounded=0;orthogonalLoop=1;jettySize=auto;html=1;" parent="HWjeAOC6Ue74Z8zbPZ3M-8" source="HWjeAOC6Ue74Z8zbPZ3M-14" target="HWjeAOC6Ue74Z8zbPZ3M-15" edge="1"><mxGeometry relative="1" as="geometry"/></mxCell><mxCell id="HWjeAOC6Ue74Z8zbPZ3M-14" value="Speel spel" style="rounded=1;whiteSpace=wrap;html=1;" parent="HWjeAOC6Ue74Z8zbPZ3M-8" vertex="1"><mxGeometry x="30" y="210" width="120" height="60" as="geometry"/></mxCell><mxCell id="HWjeAOC6Ue74Z8zbPZ3M-25" style="edgeStyle=orthogonalEdgeStyle;rounded=0;orthogonalLoop=1;jettySize=auto;html=1;entryX=0.5;entryY=0;entryDx=0;entryDy=0;" parent="HWjeAOC6Ue74Z8zbPZ3M-8" source="HWjeAOC6Ue74Z8zbPZ3M-15" target="HWjeAOC6Ue74Z8zbPZ3M-22" edge="1"><mxGeometry relative="1" as="geometry"/></mxCell><mxCell id="HWjeAOC6Ue74Z8zbPZ3M-15" value="Iets geraakt?" style="rhombus;whiteSpace=wrap;html=1;" parent="HWjeAOC6Ue74Z8zbPZ3M-8" vertex="1"><mxGeometry x="180" y="200" width="160" height="80" as="geometry"/></mxCell><mxCell id="HWjeAOC6Ue74Z8zbPZ3M-21" value="ja" style="text;html=1;strokeColor=none;fillColor=none;align=center;verticalAlign=middle;whiteSpace=wrap;rounded=0;" parent="HWjeAOC6Ue74Z8zbPZ3M-8" vertex="1"><mxGeometry x="330" y="340" width="60" height="30" as="geometry"/></mxCell><mxCell id="HWjeAOC6Ue74Z8zbPZ3M-56" style="edgeStyle=orthogonalEdgeStyle;rounded=0;orthogonalLoop=1;jettySize=auto;html=1;" parent="HWjeAOC6Ue74Z8zbPZ3M-8" source="HWjeAOC6Ue74Z8zbPZ3M-22" target="HWjeAOC6Ue74Z8zbPZ3M-55" edge="1"><mxGeometry relative="1" as="geometry"/></mxCell><mxCell id="HWjeAOC6Ue74Z8zbPZ3M-22" value="Obstakel geraakt?" style="rhombus;whiteSpace=wrap;html=1;" parent="HWjeAOC6Ue74Z8zbPZ3M-8" vertex="1"><mxGeometry x="180" y="330" width="160" height="80" as="geometry"/></mxCell><mxCell id="HWjeAOC6Ue74Z8zbPZ3M-26" value="ja" style="text;html=1;strokeColor=none;fillColor=none;align=center;verticalAlign=middle;whiteSpace=wrap;rounded=0;" parent="HWjeAOC6Ue74Z8zbPZ3M-8" vertex="1"><mxGeometry x="260" y="280" width="60" height="30" as="geometry"/></mxCell><mxCell id="HWjeAOC6Ue74Z8zbPZ3M-27" style="edgeStyle=orthogonalEdgeStyle;rounded=0;orthogonalLoop=1;jettySize=auto;html=1;" parent="HWjeAOC6Ue74Z8zbPZ3M-8" source="HWjeAOC6Ue74Z8zbPZ3M-15" target="HWjeAOC6Ue74Z8zbPZ3M-14" edge="1"><mxGeometry relative="1" as="geometry"><mxPoint x="90" y="140" as="targetPoint"/><Array as="points"><mxPoint x="260" y="110"/><mxPoint x="90" y="110"/></Array></mxGeometry></mxCell><mxCell id="HWjeAOC6Ue74Z8zbPZ3M-28" value="nee" style="text;html=1;strokeColor=none;fillColor=none;align=center;verticalAlign=middle;whiteSpace=wrap;rounded=0;" parent="HWjeAOC6Ue74Z8zbPZ3M-8" vertex="1"><mxGeometry x="250" y="150" width="60" height="30" as="geometry"/></mxCell><mxCell id="HWjeAOC6Ue74Z8zbPZ3M-57" style="edgeStyle=orthogonalEdgeStyle;rounded=0;orthogonalLoop=1;jettySize=auto;html=1;" parent="HWjeAOC6Ue74Z8zbPZ3M-8" source="HWjeAOC6Ue74Z8zbPZ3M-55" target="HWjeAOC6Ue74Z8zbPZ3M-14" edge="1"><mxGeometry relative="1" as="geometry"/></mxCell><mxCell id="HWjeAOC6Ue74Z8zbPZ3M-55" value="Score omhoog" style="rounded=0;whiteSpace=wrap;html=1;" parent="HWjeAOC6Ue74Z8zbPZ3M-8" vertex="1"><mxGeometry x="200" y="490" width="120" height="60" as="geometry"/></mxCell><mxCell id="HWjeAOC6Ue74Z8zbPZ3M-58" value="nee" style="text;html=1;strokeColor=none;fillColor=none;align=center;verticalAlign=middle;whiteSpace=wrap;rounded=0;" parent="HWjeAOC6Ue74Z8zbPZ3M-8" vertex="1"><mxGeometry x="250" y="410" width="60" height="30" as="geometry"/></mxCell><mxCell id="HWjeAOC6Ue74Z8zbPZ3M-9" value="Eindscherm" style="swimlane;startSize=20;" parent="HWjeAOC6Ue74Z8zbPZ3M-6" vertex="1"><mxGeometry x="640" y="20" width="190" height="720" as="geometry"/></mxCell><mxCell id="HWjeAOC6Ue74Z8zbPZ3M-19" value="Opnieuw beginnen?" style="rhombus;whiteSpace=wrap;html=1;" parent="HWjeAOC6Ue74Z8zbPZ3M-9" vertex="1"><mxGeometry x="10" y="330" width="170" height="80" as="geometry"/></mxCell><mxCell id="HWjeAOC6Ue74Z8zbPZ3M-50" value="ja" style="text;html=1;strokeColor=none;fillColor=none;align=center;verticalAlign=middle;whiteSpace=wrap;rounded=0;" parent="HWjeAOC6Ue74Z8zbPZ3M-9" vertex="1"><mxGeometry x="40" y="300" width="60" height="30" as="geometry"/></mxCell><mxCell id="HWjeAOC6Ue74Z8zbPZ3M-53" value="nee" style="text;html=1;strokeColor=none;fillColor=none;align=center;verticalAlign=middle;whiteSpace=wrap;rounded=0;" parent="HWjeAOC6Ue74Z8zbPZ3M-9" vertex="1"><mxGeometry x="100" y="300" width="60" height="30" as="geometry"/></mxCell><mxCell id="HWjeAOC6Ue74Z8zbPZ3M-17" style="edgeStyle=orthogonalEdgeStyle;rounded=0;orthogonalLoop=1;jettySize=auto;html=1;entryX=0;entryY=0.5;entryDx=0;entryDy=0;" parent="HWjeAOC6Ue74Z8zbPZ3M-6" source="HWjeAOC6Ue74Z8zbPZ3M-13" target="HWjeAOC6Ue74Z8zbPZ3M-14" edge="1"><mxGeometry relative="1" as="geometry"/></mxCell><mxCell id="HWjeAOC6Ue74Z8zbPZ3M-24" style="edgeStyle=orthogonalEdgeStyle;rounded=0;orthogonalLoop=1;jettySize=auto;html=1;entryX=0;entryY=0.5;entryDx=0;entryDy=0;" parent="HWjeAOC6Ue74Z8zbPZ3M-6" source="HWjeAOC6Ue74Z8zbPZ3M-22" target="HWjeAOC6Ue74Z8zbPZ3M-19" edge="1"><mxGeometry relative="1" as="geometry"/></mxCell><mxCell id="HWjeAOC6Ue74Z8zbPZ3M-29" style="edgeStyle=orthogonalEdgeStyle;rounded=0;orthogonalLoop=1;jettySize=auto;html=1;entryX=0.5;entryY=0;entryDx=0;entryDy=0;" parent="HWjeAOC6Ue74Z8zbPZ3M-6" source="HWjeAOC6Ue74Z8zbPZ3M-19" target="HWjeAOC6Ue74Z8zbPZ3M-14" edge="1"><mxGeometry relative="1" as="geometry"><Array as="points"><mxPoint x="730" y="120"/><mxPoint x="300" y="120"/></Array></mxGeometry></mxCell><mxCell id="HWjeAOC6Ue74Z8zbPZ3M-52" style="edgeStyle=orthogonalEdgeStyle;rounded=0;orthogonalLoop=1;jettySize=auto;html=1;entryX=0.5;entryY=0;entryDx=0;entryDy=0;" parent="HWjeAOC6Ue74Z8zbPZ3M-6" source="HWjeAOC6Ue74Z8zbPZ3M-19" target="HWjeAOC6Ue74Z8zbPZ3M-12" edge="1"><mxGeometry relative="1" as="geometry"><mxPoint x="740" y="70" as="targetPoint"/><Array as="points"><mxPoint x="735" y="70"/><mxPoint x="105" y="70"/></Array></mxGeometry></mxCell></root></mxGraphModel></diagram></mxfile>